<?xml version="1.0" encoding="UTF-8" standalone="no"?>
<!DOCTYPE svg PUBLIC "-//W3C//DTD SVG 1.1//EN"
 "http://www.w3.org/Graphics/SVG/1.1/DTD/svg11.dtd">
<!-- Generated by graphviz version 5.0.0 (20220707.1540)
 -->
<!-- Title: dependencies Pages: 1 -->
<svg width="514pt" height="247pt"
 viewBox="0.00 0.00 514.00 246.80" xmlns="http://www.w3.org/2000/svg" xmlns:xlink="http://www.w3.org/1999/xlink">
<g id="graph0" class="graph" transform="scale(1 1) rotate(0) translate(4 242.8)">
<title>dependencies</title>
<polygon fill="white" stroke="transparent" points="-4,4 -4,-242.8 510,-242.8 510,4 -4,4"/>
<text text-anchor="middle" x="253" y="-8.2" font-family="sans-serif" font-size="14.00">dependencies</text>
<g id="clust1" class="cluster">
<title>cluster_AppModule</title>
<polygon fill="none" stroke="black" stroke-dasharray="1,5" points="8,-32.8 8,-230.8 498,-230.8 498,-32.8 8,-32.8"/>
</g>
<g id="clust2" class="cluster">
<title>cluster_AppModule_declarations</title>
<polygon fill="none" stroke="black" points="168,-40.8 168,-92.8 490,-92.8 490,-40.8 168,-40.8"/>
</g>
<g id="clust5" class="cluster">
<title>cluster_AppModule_imports</title>
<polygon fill="none" stroke="black" points="16,-40.8 16,-92.8 160,-92.8 160,-40.8 16,-40.8"/>
</g>
<g id="clust7" class="cluster">
<title>cluster_AppModule_bootstrap</title>
<polygon fill="none" stroke="black" points="205,-170.8 205,-222.8 329,-222.8 329,-170.8 205,-170.8"/>
</g>
<!-- AppComponent -->
<g id="node1" class="node">
<title>AppComponent</title>
<polygon fill="#ffffb3" stroke="black" points="481.94,-84.8 376.06,-84.8 376.06,-48.8 481.94,-48.8 481.94,-84.8"/>
<text text-anchor="middle" x="429" y="-62.6" font-family="Times,serif" font-size="14.00">AppComponent</text>
</g>
<!-- AppModule -->
<g id="node3" class="node">
<title>AppModule</title>
<polygon fill="#8dd3c7" stroke="black" points="308.66,-149.8 305.66,-153.8 284.66,-153.8 281.66,-149.8 225.34,-149.8 225.34,-113.8 308.66,-113.8 308.66,-149.8"/>
<text text-anchor="middle" x="267" y="-127.6" font-family="Times,serif" font-size="14.00">AppModule</text>
</g>
<!-- AppComponent&#45;&gt;AppModule -->
<g id="edge1" class="edge">
<title>AppComponent&#45;&gt;AppModule</title>
<path fill="none" stroke="black" d="M429,-84.91C429,-104.14 429,-131.8 429,-131.8 429,-131.8 318.72,-131.8 318.72,-131.8"/>
<polygon fill="black" stroke="black" points="318.72,-128.3 308.72,-131.8 318.72,-135.3 318.72,-128.3"/>
</g>
<!-- WeatherAppMainComponent -->
<g id="node2" class="node">
<title>WeatherAppMainComponent</title>
<polygon fill="#ffffb3" stroke="black" points="358.4,-84.8 175.6,-84.8 175.6,-48.8 358.4,-48.8 358.4,-84.8"/>
<text text-anchor="middle" x="267" y="-62.6" font-family="Times,serif" font-size="14.00">WeatherAppMainComponent</text>
</g>
<!-- WeatherAppMainComponent&#45;&gt;AppModule -->
<g id="edge2" class="edge">
<title>WeatherAppMainComponent&#45;&gt;AppModule</title>
<path fill="none" stroke="black" d="M267,-84.91C267,-84.91 267,-103.79 267,-103.79"/>
<polygon fill="black" stroke="black" points="263.5,-103.79 267,-113.79 270.5,-103.79 263.5,-103.79"/>
</g>
<!-- AppComponent  -->
<g id="node5" class="node">
<title>AppComponent </title>
<polygon fill="#80b1d3" stroke="black" points="321.44,-214.8 212.56,-214.8 212.56,-178.8 321.44,-178.8 321.44,-214.8"/>
<text text-anchor="middle" x="267" y="-192.6" font-family="Times,serif" font-size="14.00">AppComponent </text>
</g>
<!-- AppModule&#45;&gt;AppComponent  -->
<g id="edge4" class="edge">
<title>AppModule&#45;&gt;AppComponent </title>
<path fill="none" stroke="black" stroke-dasharray="1,5" d="M267,-149.91C267,-149.91 267,-168.79 267,-168.79"/>
<polygon fill="black" stroke="black" points="263.5,-168.79 267,-178.79 270.5,-168.79 263.5,-168.79"/>
</g>
<!-- AppRoutingModule -->
<g id="node4" class="node">
<title>AppRoutingModule</title>
<polygon fill="#8dd3c7" stroke="black" points="152.28,-84.8 149.28,-88.8 128.28,-88.8 125.28,-84.8 23.72,-84.8 23.72,-48.8 152.28,-48.8 152.28,-84.8"/>
<text text-anchor="middle" x="88" y="-62.6" font-family="Times,serif" font-size="14.00">AppRoutingModule</text>
</g>
<!-- AppRoutingModule&#45;&gt;AppModule -->
<g id="edge3" class="edge">
<title>AppRoutingModule&#45;&gt;AppModule</title>
<path fill="none" stroke="black" d="M88,-84.91C88,-104.14 88,-131.8 88,-131.8 88,-131.8 215.03,-131.8 215.03,-131.8"/>
<polygon fill="black" stroke="black" points="215.03,-135.3 225.03,-131.8 215.03,-128.3 215.03,-135.3"/>
</g>
</g>
</svg>
